/vscmnt/brussel_pixiu_data/_data_brussel/112/vsc11236/PredSimResults/SUBJ07mtu3D/weighted-LRposFixed/expIG/worker_04.mot
version=1
nRows=7
nColumns=50
inDegrees=yes
endheader
                time	         pelvis_tilt	         pelvis_list	     pelvis_rotation	           pelvis_tx	           pelvis_ty	           pelvis_tz	       hip_flexion_r	     hip_adduction_r	      hip_rotation_r	        knee_angle_r	       ankle_angle_r	         mtp_angle_r	       hip_flexion_l	     hip_adduction_l	      hip_rotation_l	        knee_angle_l	       ankle_angle_l	         mtp_angle_l	    lumbar_extension	      lumbar_bending	     lumbar_rotation	 ercspn_r/activation	 intobl_r/activation	 extobl_r/activation	    abd_r/activation	    add_r/activation	hamstrings_r/activation	bifemsh_r/activation	glut_max_r/activation	iliopsoas_r/activation	rect_fem_r/activation	  vasti_r/activation	gastroc_r/activation	 soleus_r/activation	tib_ant_r/activation	 ercspn_l/activation	 intobl_l/activation	 extobl_l/activation	    abd_l/activation	    add_l/activation	hamstrings_l/activation	bifemsh_l/activation	glut_max_l/activation	iliopsoas_l/activation	rect_fem_l/activation	  vasti_l/activation	gastroc_l/activation	 soleus_l/activation	tib_ant_l/activation	
          0.00000000	         -6.96396098	         -3.77831589	         10.42180786	          0.00000000	          0.84209223	         -0.01531969	         32.26697259	         -0.86223719	         -8.61564696	         -5.23039192	          7.17778584	          0.25181907	        -12.76327763	         -4.40292717	          5.36052459	         -7.58030523	          7.57131198	         30.11927808	         -6.19871596	          2.13592684	         -3.48617443	          0.08656511	          0.15344177	          0.02549827	          0.01000001	          0.21489624	          0.06066280	          0.19108962	          0.06881189	          0.09173035	          0.01000024	          0.01000003	          0.02853312	          0.01009814	          0.27321565	          0.08230570	          0.01000001	          0.01000008	          0.03398057	          0.09063849	          0.02696730	          0.13616657	          0.02853294	          0.44570098	          0.01000022	          0.01000011	          0.28009796	          0.26406926	          0.01794218	
          0.01145645	         -7.02917682	         -3.64380180	         10.32476019	          0.01677904	          0.84024171	         -0.01501489	         32.39813493	         -0.71693666	         -7.90864535	         -7.32922492	          6.88794196	          0.23136801	        -12.76120480	         -4.28706966	          4.83248180	         -9.62257710	          6.78145769	         31.86699314	         -5.99005066	          2.62328028	         -3.53069765	          0.07268633	          0.15079844	          0.02141019	          0.01278356	          0.19709632	          0.06417827	          0.16045271	          0.12871962	          0.07702343	          0.01000005	          0.01000001	          0.02395849	          0.01357639	          0.30538091	          0.10896474	          0.01000001	          0.01190928	          0.02853254	          0.12433225	          0.02655374	          0.11433531	          0.02395832	          0.43392695	          0.01000006	          0.01000006	          0.23519049	          0.24488192	          0.01506555	
          0.02291291	         -7.07800126	         -3.50991830	         10.16077638	          0.03377489	          0.83866883	         -0.01464975	         32.29755370	         -0.57661099	         -7.24776536	         -9.07829700	          6.51718876	          0.22495125	        -12.52963052	         -4.15030218	          4.24058934	        -12.13403770	          5.84690373	         33.51405394	         -5.77434028	          3.12521480	         -3.54520828	          0.08604452	          0.12662128	          0.01797755	          0.09946926	          0.20914124	          0.06281581	          0.13472776	          0.13443184	          0.06467444	          0.01000003	          0.01000000	          0.02011728	          0.01139972	          0.33884723	          0.13937568	          0.01000001	          0.01000003	          0.02395798	          0.11242419	          0.02229650	          0.09600421	          0.02011713	          0.41753870	          0.01000010	          0.01000006	          0.19748293	          0.20896520	          0.01265012	
          0.03436936	         -7.11144586	         -3.36982583	          9.93688368	          0.05074115	          0.83752496	         -0.01418553	         32.05954992	         -0.41499436	         -6.67326083	        -10.59540647	          6.12161811	          0.20788462	        -12.01095094	         -3.99503959	          3.60020472	        -15.16752446	          4.74545683	         34.87987632	         -5.57687754	          3.62772255	         -3.53386778	          0.09029515	          0.10632038	          0.01509525	          0.13833758	          0.21593599	          0.05274491	          0.11312719	          0.16856204	          0.05430533	          0.01000006	          0.01000007	          0.01689194	          0.01000017	          0.35745660	          0.17306047	          0.01000001	          0.01000004	          0.02011685	          0.11959081	          0.01872181	          0.08061210	          0.01689180	          0.38367478	          0.01000004	          0.01000001	          0.16582093	          0.17546228	          0.01062196	
          0.04582581	         -7.12888530	         -3.23237184	          9.65799394	          0.06749604	          0.83691529	         -0.01362758	         31.76731750	         -0.23133765	         -6.16979808	        -12.04054932	          5.86619907	          0.19551269	        -11.17888341	         -3.84003937	          2.91083088	        -18.72948092	          3.50935660	         35.65483814	         -5.41054339	          4.13790553	         -3.49523076	          0.08418625	          0.08927428	          0.01267507	          0.15992461	          0.19980008	          0.04645678	          0.09498979	          0.17822297	          0.04559868	          0.01000005	          0.06080298	          0.01418371	          0.01000028	          0.36797205	          0.20303008	          0.01000001	          0.01000004	          0.01689156	          0.13024573	          0.01572022	          0.06768779	          0.01418358	          0.32359604	          0.01000003	          0.01000000	          0.13923523	          0.14733081	          0.01000000	
          0.05728226	         -7.13203701	         -3.09477211	          9.32548258	          0.08392594	          0.83695497	         -0.01299889	         31.41873359	         -0.03543738	         -5.73244206	        -13.37936596	          5.72287173	          0.18152430	        -10.03753242	         -3.69409377	          2.17063570	        -22.76296863	          2.09581385	         35.61429290	         -5.28216248	          4.64999260	         -3.42849025	          0.07068893	          0.07496114	          0.01064291	          0.16151073	          0.16776675	          0.04873222	          0.07976032	          0.16321374	          0.03828795	          0.01000007	          0.14922868	          0.01190968	          0.01000013	          0.37204079	          0.21597956	          0.01000001	          0.01000004	          0.01418338	          0.14755109	          0.01319988	          0.05683570	          0.01190956	          0.27171462	          0.01000004	          0.01000000	          0.11691196	          0.12370959	          0.01000000	
          0.06873872	         -7.12442064	         -2.94274357	          8.93821780	          0.09998761	          0.83771653	         -0.01233006	         30.95997085	          0.16123554	         -5.33522997	        -14.50923802	          5.72229179	          0.16910992	         -8.62821118	         -3.55238305	          1.39619824	        -27.10398334	          0.30096049	         34.82119314	         -5.19405914	          5.14671439	         -3.33245106	          0.05935555	          0.06294279	          0.01000002	          0.16284479	          0.14086910	          0.04848539	          0.06697256	          0.13704648	          0.03214933	          0.01000005	          0.20903234	          0.01000027	          0.01000008	          0.36342072	          0.21341355	          0.01000000	          0.01000004	          0.01190939	          0.15933511	          0.01108362	          0.05598446	          0.01000013	          0.22815123	          0.01000002	          0.01000000	          0.09816773	          0.10387551	          0.01000000	
